<?xml version="1.0" encoding="UTF-8"?>
<!DOCTYPE svg PUBLIC "-//W3C//DTD SVG 1.1//EN" "http://www.w3.org/Graphics/SVG/1.1/DTD/svg11.dtd">
<svg xmlns="http://www.w3.org/2000/svg" version="1.1" width="300px" height="300px" style="shape-rendering:geometricPrecision; text-rendering:geometricPrecision; image-rendering:optimizeQuality; fill-rule:evenodd; clip-rule:evenodd" xmlns:xlink="http://www.w3.org/1999/xlink">
<g><path style="opacity:0.994" fill="#4860d3" d="M 237.5,211.5 C 236.636,210.312 235.636,209.145 234.5,208C 235.833,207.667 237.167,207.333 238.5,207C 236.899,206.727 235.399,206.227 234,205.5C 232.294,201.921 230.461,198.421 228.5,195C 229.5,194.667 230.5,194.333 231.5,194C 230.062,193.781 228.729,193.281 227.5,192.5C 225.568,186.961 222.901,181.961 219.5,177.5C 228.155,170.532 233.488,161.532 235.5,150.5C 236.648,146.019 236.815,141.352 236,136.5C 235.434,134.277 234.6,132.277 233.5,130.5C 227.958,115.633 217.291,106.966 201.5,104.5C 195.533,103.968 189.533,102.968 183.5,101.5C 179.786,93.5282 175.786,85.6949 171.5,78C 172.056,77.6174 172.389,77.1174 172.5,76.5C 174.01,77.7279 175.51,77.7279 177,76.5C 178.333,77.1667 179.667,77.8333 181,78.5C 189.558,53.7262 206.391,46.5596 231.5,57C 234.442,59.7104 237.275,62.5437 240,65.5C 254.214,94.6153 268.881,124.615 284,155.5C 289.796,176.569 282.796,191.235 263,199.5C 261.732,199.384 260.398,199.051 259,198.5C 255.667,201.167 252.333,201.167 249,198.5C 245.917,201.908 243.251,205.575 241,209.5C 240.184,210.823 239.017,211.489 237.5,211.5 Z"/></g>
<g><path style="opacity:0.99" fill="#576de5" d="M 121.5,77.5 C 124.562,77.8414 126.728,79.5081 128,82.5C 129.333,81.8333 130.333,80.8333 131,79.5C 139.859,96.5646 148.359,114.231 156.5,132.5C 153.56,146.563 156.227,159.397 164.5,171C 164.241,172.261 163.574,173.261 162.5,174C 157.481,176.843 152.814,180.176 148.5,184C 147.5,184.667 146.5,184.667 145.5,184C 140.192,180.355 135.192,176.355 130.5,172C 145.122,153.618 145.122,135.285 130.5,117C 120.469,108.267 108.802,104.434 95.5,105.5C 99.0212,104.629 102.688,103.795 106.5,103C 98.9586,88.3918 91.7919,73.5584 85,58.5C 83.8549,57.3636 82.6883,56.3636 81.5,55.5C 84.5146,54.7869 87.5146,54.4535 90.5,54.5C 92.1222,56.4386 93.9555,56.772 96,55.5C 100.98,57.7222 105.647,61.0556 110,65.5C 113.239,69.7234 115.739,74.0568 117.5,78.5C 118.736,77.7542 120.07,77.4208 121.5,77.5 Z"/></g>
<g><path style="opacity:0.987" fill="#5168df" d="M 172.5,76.5 C 172.389,77.1174 172.056,77.6174 171.5,78C 175.786,85.6949 179.786,93.5282 183.5,101.5C 189.533,102.968 195.533,103.968 201.5,104.5C 179.652,102.92 164.652,112.253 156.5,132.5C 148.359,114.231 139.859,96.5646 131,79.5C 130.333,80.8333 129.333,81.8333 128,82.5C 126.728,79.5081 124.562,77.8414 121.5,77.5C 126.599,76.3052 132.099,75.3052 138,74.5C 145.497,75.8141 152.997,75.8141 160.5,74.5C 162.374,74.3898 163.874,75.0564 165,76.5C 167.459,75.3511 169.959,75.3511 172.5,76.5 Z"/></g>
<g><path style="opacity:0.988" fill="#5d73ee" d="M 81.5,55.5 C 82.6883,56.3636 83.8549,57.3636 85,58.5C 91.7919,73.5584 98.9586,88.3918 106.5,103C 102.688,103.795 99.0212,104.629 95.5,105.5C 76.1103,109.887 65.1103,121.887 62.5,141.5C 61.7321,140.737 61.2321,139.737 61,138.5C 59.1598,139.833 58.6598,139.666 59.5,138C 57.9632,136.89 57.2965,135.39 57.5,133.5C 53.1905,135.224 52.5238,134.224 55.5,130.5C 55.032,128.866 54.032,127.7 52.5,127C 52.8333,126.667 53.1667,126.333 53.5,126C 51.9154,125.915 50.5821,125.749 49.5,125.5C 50.376,124.749 51.376,124.249 52.5,124C 51.5,122.333 50.1667,121 48.5,120C 49.5838,117.81 48.9171,116.144 46.5,115C 46.9574,114.586 47.2907,114.086 47.5,113.5C 46.316,111.954 45.316,110.287 44.5,108.5C 43.7492,109.376 43.2492,110.376 43,111.5C 42.6258,110.584 42.1258,109.75 41.5,109C 44.7303,107.276 45.0636,105.276 42.5,103C 43.3366,101.989 43.67,100.822 43.5,99.5C 48.7229,88.3114 54.2229,77.3114 60,66.5C 65.1302,60.348 71.6302,56.348 79.5,54.5C 80.1835,54.8627 80.8501,55.1961 81.5,55.5 Z"/></g>
<g><path style="opacity:1" fill="#f9fafd" d="M 201.5,104.5 C 217.291,106.966 227.958,115.633 233.5,130.5C 235.132,137.044 235.799,143.711 235.5,150.5C 233.488,161.532 228.155,170.532 219.5,177.5C 215.5,179.5 211.5,181.5 207.5,183.5C 201.87,184.292 196.203,184.625 190.5,184.5C 187.794,184.425 185.127,184.092 182.5,183.5C 178.492,181.075 174.326,178.741 170,176.5C 163.664,180.682 157.497,185.015 151.5,189.5C 149.695,190.237 148.029,191.237 146.5,192.5C 139.464,186.96 132.297,181.626 125,176.5C 119.087,180.526 112.587,182.86 105.5,183.5C 78.0671,183.069 63.7338,169.069 62.5,141.5C 65.1103,121.887 76.1103,109.887 95.5,105.5C 108.802,104.434 120.469,108.267 130.5,117C 145.122,135.285 145.122,153.618 130.5,172C 135.192,176.355 140.192,180.355 145.5,184C 146.5,184.667 147.5,184.667 148.5,184C 152.814,180.176 157.481,176.843 162.5,174C 163.574,173.261 164.241,172.261 164.5,171C 156.227,159.397 153.56,146.563 156.5,132.5C 164.652,112.253 179.652,102.92 201.5,104.5 Z"/></g>
<g><path style="opacity:0.988" fill="#6378f6" d="M 43.5,99.5 C 43.67,100.822 43.3366,101.989 42.5,103C 45.0636,105.276 44.7303,107.276 41.5,109C 42.1258,109.75 42.6258,110.584 43,111.5C 43.2492,110.376 43.7492,109.376 44.5,108.5C 45.316,110.287 46.316,111.954 47.5,113.5C 47.2907,114.086 46.9574,114.586 46.5,115C 48.9171,116.144 49.5838,117.81 48.5,120C 50.1667,121 51.5,122.333 52.5,124C 51.376,124.249 50.376,124.749 49.5,125.5C 50.5821,125.749 51.9154,125.915 53.5,126C 53.1667,126.333 52.8333,126.667 52.5,127C 54.032,127.7 55.032,128.866 55.5,130.5C 52.5238,134.224 53.1905,135.224 57.5,133.5C 57.2965,135.39 57.9632,136.89 59.5,138C 58.6598,139.666 59.1598,139.833 61,138.5C 61.2321,139.737 61.7321,140.737 62.5,141.5C 63.7338,169.069 78.0671,183.069 105.5,183.5C 105.389,184.117 105.056,184.617 104.5,185C 106.291,185.415 107.624,186.415 108.5,188C 107.975,188.692 107.308,189.192 106.5,189.5C 106.264,188.753 105.93,187.92 105.5,187C 104.833,186.333 104.167,186.333 103.5,187C 104.821,190.651 106.488,194.151 108.5,197.5C 109.376,198.251 110.376,198.751 111.5,199C 110.446,200.388 110.28,201.888 111,203.5C 113.132,207.41 114.965,211.41 116.5,215.5C 117.822,215.67 118.989,215.337 120,214.5C 122.204,217.23 123.537,220.23 124,223.5C 122.426,222.016 121.093,220.349 120,218.5C 119.367,223.202 121.534,225.369 126.5,225C 125.322,225.967 123.989,226.467 122.5,226.5C 125.973,233.091 128.973,239.425 131.5,245.5C 127.742,245.093 124.076,245.093 120.5,245.5C 119.803,243.615 118.803,243.282 117.5,244.5C 108.877,242.117 100.211,238.95 91.5,235C 76.9011,227.838 64.2344,217.171 53.5,203C 52.5,202.5 51.5,202 50.5,201.5C 47.6041,201.707 44.6041,201.873 41.5,202C 40.324,203.914 39.324,203.748 38.5,201.5C 37.914,201.709 37.414,202.043 37,202.5C 26.5904,198.885 18.7571,191.718 13.5,181C 13.5,174 13.5,167 13.5,160C 23.2353,140.027 33.2353,119.861 43.5,99.5 Z"/></g>
<g><path style="opacity:1" fill="#6479f1" d="M 96.5,145.5 C 96.5,142.167 96.5,138.833 96.5,135.5C 97.8734,135.657 99.2068,135.49 100.5,135C 98.6183,134.802 96.9516,134.302 95.5,133.5C 108.406,133.938 113.74,127.938 111.5,115.5C 125.901,121.387 132.735,132.054 132,147.5C 120.888,132.281 109.054,131.614 96.5,145.5 Z"/></g>
<g><path style="opacity:1" fill="#a6b2eb" d="M 83.5,120.5 C 83.56,119.957 83.8933,119.624 84.5,119.5C 85.4519,121.045 85.7852,122.712 85.5,124.5C 84.8333,123.167 84.1667,121.833 83.5,120.5 Z"/></g>
<g><path style="opacity:1" fill="#677bf5" d="M 226.5,137.5 C 226.81,140.713 226.477,143.713 225.5,146.5C 219.057,136.097 210.057,133.097 198.5,137.5C 198.771,135.62 198.104,134.287 196.5,133.5C 202.086,130.912 205.419,126.579 206.5,120.5C 206.514,118.407 205.848,116.574 204.5,115C 215.966,118.301 223.3,125.801 226.5,137.5 Z"/></g>
<g><path style="opacity:1" fill="#4f66d9" d="M 196.5,133.5 C 198.104,134.287 198.771,135.62 198.5,137.5C 188.099,145.36 185.599,155.36 191,167.5C 192.715,170.717 195.215,173.05 198.5,174.5C 196.735,175.461 194.735,175.795 192.5,175.5C 177.714,172.883 168.547,164.216 165,149.5C 163.025,136.458 167.358,126.124 178,118.5C 178.287,120.891 178.787,123.224 179.5,125.5C 173.307,127.166 171.974,130.666 175.5,136C 180.092,137.577 183.092,136.077 184.5,131.5C 188.288,133.256 192.288,133.922 196.5,133.5 Z"/></g>
<g><path style="opacity:1" fill="#4f65d9" d="M 83.5,120.5 C 84.1667,121.833 84.8333,123.167 85.5,124.5C 84.6184,126.384 83.1184,127.717 81,128.5C 79.0746,135.911 81.5746,138.411 88.5,136C 89.0897,134.491 89.7564,132.991 90.5,131.5C 91.8498,132.95 93.5165,133.617 95.5,133.5C 96.9516,134.302 98.6183,134.802 100.5,135C 99.2068,135.49 97.8734,135.657 96.5,135.5C 96.5,138.833 96.5,142.167 96.5,145.5C 93.2586,153.939 94.0919,161.939 99,169.5C 100.451,171.464 102.284,172.797 104.5,173.5C 101.713,174.477 98.7131,174.81 95.5,174.5C 83.1586,170.991 75.3253,162.991 72,150.5C 69.4545,137.959 73.2878,127.959 83.5,120.5 Z"/></g>
<g><path style="opacity:1" fill="#b4befe" d="M 226.5,137.5 C 227.643,140.976 227.81,144.642 227,148.5C 226.283,147.956 225.783,147.289 225.5,146.5C 226.477,143.713 226.81,140.713 226.5,137.5 Z"/></g>
<g><path style="opacity:1" fill="#b4bded" d="M 233.5,130.5 C 234.6,132.277 235.434,134.277 236,136.5C 236.815,141.352 236.648,146.019 235.5,150.5C 235.799,143.711 235.132,137.044 233.5,130.5 Z"/></g>
<g><path style="opacity:1" fill="#abb6f2" d="M 104.5,173.5 C 105.043,173.56 105.376,173.893 105.5,174.5C 102.02,175.806 98.6868,175.806 95.5,174.5C 98.7131,174.81 101.713,174.477 104.5,173.5 Z"/></g>
<g><path style="opacity:1" fill="#c0c9f5" d="M 198.5,174.5 C 199.043,174.56 199.376,174.893 199.5,175.5C 197.027,176.797 194.693,176.797 192.5,175.5C 194.735,175.795 196.735,175.461 198.5,174.5 Z"/></g>
<g><path style="opacity:0.992" fill="#556ce4" d="M 182.5,183.5 C 184.451,188.832 187.117,194.332 190.5,200C 190.167,200.333 189.833,200.667 189.5,201C 190.939,203.225 192.606,205.225 194.5,207C 194.167,207.333 193.833,207.667 193.5,208C 197.063,215.896 201.063,223.562 205.5,231C 203.888,231.72 202.388,231.554 201,230.5C 201.135,232.425 201.302,234.425 201.5,236.5C 197.511,238.576 193.344,240.576 189,242.5C 188.667,242.167 188.333,241.833 188,241.5C 185.328,243.572 182.495,244.239 179.5,243.5C 177.408,243.439 175.908,242.439 175,240.5C 174.139,236.001 172.972,231.668 171.5,227.5C 168.282,227.349 167.949,226.516 170.5,225C 168.699,224.683 168.366,224.016 169.5,223C 166.797,219.099 164.463,214.932 162.5,210.5C 161.802,209.137 161.802,207.971 162.5,207C 159.738,205.655 158.738,203.655 159.5,201C 158.167,200.333 156.833,199.667 155.5,199C 156.167,198.667 156.833,198.333 157.5,198C 156.743,196.488 155.743,195.154 154.5,194C 154.833,193 155.167,192 155.5,191C 154.255,190.209 152.922,189.709 151.5,189.5C 157.497,185.015 163.664,180.682 170,176.5C 174.326,178.741 178.492,181.075 182.5,183.5 Z"/></g>
<g><path style="opacity:0.987" fill="#5067de" d="M 219.5,177.5 C 222.901,181.961 225.568,186.961 227.5,192.5C 228.729,193.281 230.062,193.781 231.5,194C 230.5,194.333 229.5,194.667 228.5,195C 230.461,198.421 232.294,201.921 234,205.5C 235.399,206.227 236.899,206.727 238.5,207C 237.167,207.333 235.833,207.667 234.5,208C 235.636,209.145 236.636,210.312 237.5,211.5C 228.867,221.697 218.867,229.53 207.5,235C 205.482,235.505 203.482,236.005 201.5,236.5C 201.302,234.425 201.135,232.425 201,230.5C 202.388,231.554 203.888,231.72 205.5,231C 201.063,223.562 197.063,215.896 193.5,208C 193.833,207.667 194.167,207.333 194.5,207C 192.606,205.225 190.939,203.225 189.5,201C 189.833,200.667 190.167,200.333 190.5,200C 187.117,194.332 184.451,188.832 182.5,183.5C 185.127,184.092 187.794,184.425 190.5,184.5C 192.641,185.163 194.975,185.497 197.5,185.5C 201.141,185.685 204.474,185.019 207.5,183.5C 211.5,181.5 215.5,179.5 219.5,177.5 Z"/></g>
<g><path style="opacity:0.99" fill="#5970e9" d="M 151.5,189.5 C 152.922,189.709 154.255,190.209 155.5,191C 155.167,192 154.833,193 154.5,194C 155.743,195.154 156.743,196.488 157.5,198C 156.833,198.333 156.167,198.667 155.5,199C 156.833,199.667 158.167,200.333 159.5,201C 158.738,203.655 159.738,205.655 162.5,207C 161.802,207.971 161.802,209.137 162.5,210.5C 164.463,214.932 166.797,219.099 169.5,223C 168.366,224.016 168.699,224.683 170.5,225C 167.949,226.516 168.282,227.349 171.5,227.5C 172.972,231.668 174.139,236.001 175,240.5C 175.908,242.439 177.408,243.439 179.5,243.5C 178.834,245.673 177.667,246.007 176,244.5C 172.872,245.204 169.706,245.704 166.5,246C 154.659,246.826 142.993,246.659 131.5,245.5C 128.973,239.425 125.973,233.091 122.5,226.5C 123.989,226.467 125.322,225.967 126.5,225C 121.534,225.369 119.367,223.202 120,218.5C 121.093,220.349 122.426,222.016 124,223.5C 123.537,220.23 122.204,217.23 120,214.5C 118.989,215.337 117.822,215.67 116.5,215.5C 114.965,211.41 113.132,207.41 111,203.5C 110.28,201.888 110.446,200.388 111.5,199C 110.376,198.751 109.376,198.251 108.5,197.5C 106.488,194.151 104.821,190.651 103.5,187C 104.167,186.333 104.833,186.333 105.5,187C 105.93,187.92 106.264,188.753 106.5,189.5C 107.308,189.192 107.975,188.692 108.5,188C 107.624,186.415 106.291,185.415 104.5,185C 105.056,184.617 105.389,184.117 105.5,183.5C 112.587,182.86 119.087,180.526 125,176.5C 132.297,181.626 139.464,186.96 146.5,192.5C 148.029,191.237 149.695,190.237 151.5,189.5 Z"/></g>
<g><path style="opacity:1" fill="#7686e5" d="M 207.5,183.5 C 204.474,185.019 201.141,185.685 197.5,185.5C 194.975,185.497 192.641,185.163 190.5,184.5C 196.203,184.625 201.87,184.292 207.5,183.5 Z"/></g>
</svg>
